<svg xmlns="http://www.w3.org/2000/svg" viewBox="0 0 512 512">
  <rect width="512" height="512" rx="120" fill="#050607"/>
  <rect x="96" y="92" width="320" height="328" rx="54" fill="#24262B"/>
  <rect x="136" y="148" width="240" height="30" rx="15" fill="#42FFF4"/>
  <circle cx="162" cy="238" r="20" fill="#42FFF4"/>
  <path d="M210 230h128a14 14 0 0 1 0 28H210a14 14 0 0 1 0-28Z" fill="#F3F4F5"/>
  <circle cx="162" cy="312" r="20" fill="#16C9C2"/>
  <path d="M210 304h100a14 14 0 0 1 0 28H210a14 14 0 0 1 0-28Z" fill="#A1A3A7"/>
  <path d="m150 241 10 10 22-28" fill="none" stroke="#050607" stroke-width="14" stroke-linecap="round" stroke-linejoin="round"/>
</svg>
